<svg width="104" height="56" viewBox="0 0 104 56" fill="none" xmlns="http://www.w3.org/2000/svg">
<g filter="url(#filter0_i_176_64)">
<rect width="104" height="56" rx="28" fill="#4A2CED"/>
<path fill-rule="evenodd" clip-rule="evenodd" d="M48.25 19.75L59.5 19.75C59.6989 19.75 59.8897 19.829 60.0303 19.9697C60.171 20.1103 60.25 20.3011 60.25 20.5V31.75C60.25 32.1642 59.9142 32.5 59.5 32.5C59.0858 32.5 58.75 32.1642 58.75 31.75V22.3107L45.0303 36.0303C44.7374 36.3232 44.2626 36.3232 43.9697 36.0303C43.6768 35.7374 43.6768 35.2626 43.9697 34.9697L57.6893 21.25L48.25 21.25C47.8358 21.25 47.5 20.9142 47.5 20.5C47.5 20.0858 47.8358 19.75 48.25 19.75Z" fill="white"/>
</g>
<defs>
<filter id="filter0_i_176_64" x="0" y="0" width="108" height="60" filterUnits="userSpaceOnUse" color-interpolation-filters="sRGB">
<feFlood flood-opacity="0" result="BackgroundImageFix"/>
<feBlend mode="normal" in="SourceGraphic" in2="BackgroundImageFix" result="shape"/>
<feColorMatrix in="SourceAlpha" type="matrix" values="0 0 0 0 0 0 0 0 0 0 0 0 0 0 0 0 0 0 127 0" result="hardAlpha"/>
<feOffset dx="4" dy="4"/>
<feGaussianBlur stdDeviation="8.7"/>
<feComposite in2="hardAlpha" operator="arithmetic" k2="-1" k3="1"/>
<feColorMatrix type="matrix" values="0 0 0 0 1 0 0 0 0 1 0 0 0 0 1 0 0 0 0.28 0"/>
<feBlend mode="normal" in2="shape" result="effect1_innerShadow_176_64"/>
</filter>
</defs>
</svg>
