<svg width="850" height="170" viewBox="0 0 850 170" fill="none" xmlns="http://www.w3.org/2000/svg">
<path d="M715.886 169.502V0.501953H740.963L824.83 126.078V0.501953H849.907V169.502H824.83L740.963 43.8082V169.502H715.886Z" fill="#232329"/>
<path d="M578.653 169.502V0.501953H687.478V23.6221H603.375V71.036H673.284V94.1561H603.375V146.382H687.478V169.502H578.653Z" fill="#232329"/>
<path d="M518.409 169.502V0.501953H543.132V169.502H518.409Z" fill="#232329"/>
<path d="M314.814 169.502V0.501953H337.171L398.917 127.604L460.309 0.501953H482.902V169.385H459.481V53.7839L404.477 169.502H393.239L338.117 53.7839V169.502H314.814Z" fill="#232329"/>
<path d="M147.27 169.502L202.629 0.501953H238.233L293.593 169.502H267.924L216.942 15.2895H223.329L172.938 169.502H147.27ZM176.014 131.36V108.357H264.967V131.36H176.014Z" fill="#232329"/>
<path d="M0.378906 169.502V0.501953H53.7271C55.3042 0.501953 58.222 0.541075 62.4804 0.61932C66.8177 0.697555 70.9578 1.01051 74.9007 1.5582C88.2279 3.20125 99.4259 7.93482 108.495 15.7589C117.642 23.583 124.542 33.5195 129.195 45.5686C133.848 57.5395 136.174 70.6839 136.174 85.002C136.174 99.3982 133.848 112.621 129.195 124.67C124.542 136.641 117.642 146.538 108.495 154.362C99.4259 162.108 88.2279 166.803 74.9007 168.446C70.9578 168.993 66.8177 169.306 62.4804 169.385C58.222 169.463 55.3042 169.502 53.7271 169.502H0.378906ZM25.6927 146.147H53.7271C56.4083 146.147 59.6021 146.069 63.3084 145.912C67.0148 145.756 70.2875 145.443 73.1264 144.973C81.8009 143.33 88.8193 139.614 94.1818 133.824C99.623 127.956 103.605 120.758 106.129 112.23C108.652 103.701 109.914 94.6256 109.914 85.002C109.914 75.0654 108.613 65.8721 106.011 57.4221C103.408 48.8939 99.3865 41.7739 93.9452 36.0624C88.5828 30.2725 81.6432 26.5952 73.1264 25.0304C70.2875 24.4827 66.9754 24.1698 63.1901 24.0915C59.4838 23.9351 56.3294 23.8568 53.7271 23.8568H25.6927V146.147Z" fill="#232329"/>
</svg>
